<svg xmlns="http://www.w3.org/2000/svg" xmlns:xlink="http://www.w3.org/1999/xlink" viewBox="0 0 252.3 768.36"><defs><style>.cls-1,.cls-2{fill:none;stroke-linecap:round;stroke-linejoin:round;stroke-width:8px;stroke-dasharray:2 10;}.cls-1{stroke:url(#linear-gradient);}.cls-2{stroke:url(#linear-gradient-2);}.cls-3{fill:url(#linear-gradient-3);}</style><linearGradient id="linear-gradient" x1="-4436.02" y1="2166.54" x2="-4436.02" y2="899.63" gradientTransform="matrix(1, 0, 0, -1, 4583.77, 2125.21)" gradientUnits="userSpaceOnUse"><stop offset="0" stop-color="#ffdc20"/><stop offset="0.97" stop-color="#800020"/></linearGradient><linearGradient id="linear-gradient-2" x1="-4474.49" y1="2132.48" x2="-4474.49" y2="778.41" gradientTransform="matrix(1, 0, 0, -1, 4583.77, 2125.21)" gradientUnits="userSpaceOnUse"><stop offset="0" stop-color="#800020"/><stop offset="0.97" stop-color="gold"/></linearGradient><linearGradient id="linear-gradient-3" x1="81.28" y1="690.66" x2="157.9" y2="771.62" gradientTransform="translate(426.6 63.46) rotate(33.35)" gradientUnits="userSpaceOnUse"><stop offset="0.3" stop-color="gold"/><stop offset="0.83" stop-color="#7f6700"/></linearGradient></defs><title>Asset 9PACK</title><g id="Layer_2" data-name="Layer 2"><g id="Layer_1-2" data-name="Layer 1"><path class="cls-1" d="M189.53,4c2.06,35.74,172,261.8-75.73,406.37-181,105.65,69.74,159.44,20.36,300.88"/><path class="cls-2" d="M62.6,4c-2.05,35.73-171.53,261.7,75.52,406.21,180.52,105.61-15.36,115.23-15.36,201.16"/><path class="cls-3" d="M176.55,732.68c3.83-1.47,7.47-1.31,12-4.79,2.73-2.09,4.79-8.27,4.79-8.27a17.43,17.43,0,0,1-4.53,7c-4.23,3.9-8,3.78-12.37,4.78-12.59,2.84-12.85,18.42-25.47,27.75-5.41,4-11.49,6.48-22.47,6.32l1.34-.53-.05-.14c42.94-19.57,16.66-56.62,1.52-30.84-3.36-27.35-44-11.56-8.07,31.26-9,2.12-15,1.22-20.65-1C88,758.47,83.76,743.49,70.87,744c-4.5.17-8.1,1.25-13.2-1.43a17.63,17.63,0,0,1-6.19-5.64s3.59,5.44,6.76,6.75c5.31,2.19,8.79,1.1,12.86,1.54,12.83,1.39,15.69,14.61,30.34,20.23,5.23,2,11.9,4.63,23.17,1.45l.11.13.18-.07,3.25.38c13.26.8,19.47-3.79,24.29-7.28C165.16,750.84,164.51,737.33,176.55,732.68Zm-46.7,9.05c14-24.18,36.66,3.46-3.95,21.84C96.29,724.72,127.48,714.17,129.85,741.73Z"/></g></g></svg>